<?xml version="1.0" encoding="UTF-8"?>
<svg id="Layer_2" data-name="Layer 2" xmlns="http://www.w3.org/2000/svg" viewBox="0 0 881.83 881.83">
  <defs>
    <style>
      .cls-1 {
        fill: #101010;
      }
    </style>
  </defs>
  <g id="Layer_1-2" data-name="Layer 1">
    <path class="cls-1" d="M492.89,47.19h0c8.96,92.69,117.8,137.78,189.68,78.57h0c48.79-40.2,113.7,24.71,73.5,73.5h0c-59.21,71.88-14.12,180.72,78.57,189.68h0c62.92,6.08,62.92,97.87,0,103.95h0c-92.69,8.96-137.78,117.8-78.57,189.68h0c40.2,48.79-24.71,113.7-73.5,73.5h0c-71.88-59.21-180.72-14.13-189.68,78.57h0c-6.08,62.93-97.87,62.93-103.95,0h0c-8.96-92.69-117.8-137.78-189.68-78.57h0c-48.79,40.2-113.7-24.71-73.5-73.5h0c59.21-71.88,14.12-180.72-78.57-189.68h0c-62.92-6.08-62.92-97.87,0-103.95h0c92.69-8.96,137.78-117.8,78.57-189.68h0c-40.2-48.79,24.71-113.7,73.5-73.5h0c71.88,59.21,180.72,14.13,189.68-78.57h0c6.08-62.93,97.87-62.93,103.95,0Z"/>
  </g>
</svg>