<?xml version="1.0" encoding="UTF-8"?>
<svg id="Layer_1" data-name="Layer 1" xmlns="http://www.w3.org/2000/svg" viewBox="0 0 645.34 645.31">
  <defs>
    <style>
      .cls-1 {
        fill: #fff;
      }
    </style>
  </defs>
  <path class="cls-1" d="M314.77,93.55c0,7.87-6.38,14.25-14.25,14.25h-138.7c-14.97,0-27.71,5.27-38.24,15.79-10.53,10.53-15.79,23.19-15.79,37.99v138.94c0,7.87-6.38,14.25-14.25,14.25H14.25c-7.87,0-14.25-6.38-14.25-14.25V14.25C0,6.38,6.38,0,14.25,0h286.28c7.87,0,14.25,6.38,14.25,14.25v79.31Z"/>
  <path class="cls-1" d="M314.78,551.76v79.3c0,7.87-6.38,14.25-14.25,14.25h-138.71c-4.34,0-8.63-.15-12.86-.45-.28-.02-.56-.03-.84-.03H14.25c-7.87,0-14.25-6.38-14.25-14.25v-285.78c0-7.87,6.38-14.25,14.25-14.25h79.3c7.87,0,14.25,6.38,14.25,14.25v138.94c0,14.8,5.26,27.45,15.79,37.98,8.7,8.7,18.93,13.81,30.68,15.31,2.45.32,4.96.48,7.55.48h138.71c7.87,0,14.25,6.38,14.25,14.25Z"/>
  <path class="cls-1" d="M330.58,551.76c0-7.87,6.38-14.25,14.25-14.25h138.7c14.97,0,27.71-5.27,38.24-15.79,10.53-10.53,15.79-23.19,15.79-37.99v-138.94c0-7.87,6.38-14.25,14.25-14.25h79.31c7.87,0,14.25,6.38,14.25,14.25v286.28c0,7.87-6.38,14.25-14.25,14.25h-286.28c-7.87,0-14.25-6.38-14.25-14.25v-79.31Z"/>
  <path class="cls-1" d="M330.57,93.55V14.25c0-7.87,6.38-14.25,14.25-14.25h138.71c4.34,0,8.63.15,12.86.45.28.02.56.03.84.03h133.88c7.87,0,14.25,6.38,14.25,14.25v285.78c0,7.87-6.38,14.25-14.25,14.25h-79.3c-7.87,0-14.25-6.38-14.25-14.25v-138.94c0-14.8-5.26-27.45-15.79-37.98-8.7-8.7-18.93-13.81-30.68-15.31-2.45-.32-4.96-.48-7.55-.48h-138.71c-7.87,0-14.25-6.38-14.25-14.25Z"/>
</svg>