<?xml version="1.0" encoding="UTF-8"?>
<svg id="Layer_1" data-name="Layer 1" xmlns="http://www.w3.org/2000/svg" viewBox="0 0 1926.55 645.31">
  <defs>
    <style>
      .cls-1 {
        fill: #fff;
      }
    </style>
  </defs>
  <g>
    <path class="cls-1" d="M1603.5,459.22h13.14c.83,0,1.51.62,1.66,1.44,1.31,6.72,6.29,9.73,14.87,9.73,6.3,0,12.22-2.48,12.22-8.31,0-6.2-6.02-7.54-16.33-9.93-13.84-3.15-25.11-6.59-25.11-21.39s12.03-21.39,27.69-21.39,25.68,6.59,27.57,19.27c.15,1.01-.69,1.93-1.71,1.93h-12.66c-.79,0-1.43-.57-1.65-1.33-1.32-4.72-5.55-7.45-12.03-7.45s-11.17,2.86-11.17,7.35c0,5.54,6.11,6.78,17.28,9.26,12.79,2.86,24.54,7.06,24.54,22.05s-12.41,22.91-28.64,22.91c-18.23,0-30.04-8.09-31.39-22.32-.09-.99.73-1.84,1.72-1.84Z"/>
    <path class="cls-1" d="M1733.91,410.63h55.21c.94,0,1.7.76,1.7,1.7v10.44c0,.94-.76,1.7-1.7,1.7h-17.79c-.94,0-1.7.76-1.7,1.7v53.78c0,.94-.76,1.7-1.7,1.7h-12.92c-.94,0-1.7-.76-1.7-1.7v-53.78c0-.94-.76-1.7-1.7-1.7h-17.69c-.94,0-1.7-.76-1.7-1.7v-10.44c0-.94.76-1.7,1.7-1.7Z"/>
    <path class="cls-1" d="M1865.52,456.93v-44.6c0-.94.76-1.7,1.7-1.7h12.83c.94,0,1.7.76,1.7,1.7v44.98c0,7.73,4.1,12.5,13.27,12.5,8.5,0,12.89-5.06,12.89-12.79v-44.7c0-.94.76-1.7,1.7-1.7h12.92c.94,0,1.7.76,1.7,1.7v44.6c0,16.52-10.22,26.06-29.21,26.06s-29.5-9.36-29.5-26.06Z"/>
    <path class="cls-1" d="M1605.49,574.26c0-.94.76-1.7,1.7-1.7h27.89c19.95,0,32.74,14.23,32.74,35.99s-11.93,35.04-33.7,35.04h-26.94c-.94,0-1.7-.76-1.7-1.7v-67.63ZM1632.89,629.84c12.32,0,18.33-7.74,18.33-21.29s-6.11-22.24-18.04-22.24h-9.66c-.94,0-1.7.76-1.7,1.7v40.13c0,.94.76,1.7,1.7,1.7h9.37Z"/>
    <path class="cls-1" d="M1755.5,572.56h12.92c.94,0,1.7.76,1.7,1.7v67.63c0,.94-.76,1.7-1.7,1.7h-12.92c-.94,0-1.7-.76-1.7-1.7v-67.63c0-.94.76-1.7,1.7-1.7Z"/>
    <path class="cls-1" d="M1856.38,608.36c0-21.29,13.56-37.04,35.13-37.04s35.03,15.75,35.03,37.04-13.56,36.95-35.03,36.95-35.13-15.75-35.13-36.95ZM1909.94,608.36c0-13.46-6.11-23.87-18.33-23.87s-18.62,10.41-18.62,23.87,6.3,23.58,18.62,23.58,18.33-10.22,18.33-23.58Z"/>
  </g>
  <path class="cls-1" d="M306.56,301.1c0,7.66-6.21,13.87-13.87,13.87h-135.08c-43.41,0-80.52-15.38-111.36-46.13C15.41,238.09,0,201.01,0,157.61S15.41,77.09,46.25,46.25C77.08,15.42,114.2,0,157.6,0,191.24,0,221.71,9.62,249.02,28.84c21.22,14.94,37.54,33.61,48.95,56,4.7,9.22-2.06,20.16-12.4,20.16h-127.96c-14.42,0-26.79,5.17-37.12,15.5-10.33,10.33-15.5,22.7-15.5,37.12s5.16,26.75,15.5,37c10.33,10.25,22.7,15.38,37.12,15.38h30.09c7.66,0,13.87-6.21,13.87-13.87v-39.04c0-7.66,6.21-13.87,13.87-13.87h77.24c7.66,0,13.87,6.21,13.87,13.87v144.03Z"/>
  <path class="cls-1" d="M628.49,99.53c0,7.66-6.21,13.87-13.87,13.87h-135.08c-14.58,0-26.99,5.13-37.24,15.38-10.25,10.25-15.38,22.58-15.38,37v135.32c0,7.66-6.21,13.87-13.87,13.87h-77.24c-7.66,0-13.87-6.21-13.87-13.87V22.29c0-7.66,6.21-13.87,13.87-13.87h278.81c7.66,0,13.87,6.21,13.87,13.87v77.24Z"/>
  <path class="cls-1" d="M943.7,157.61c0,43.41-15.38,80.48-46.13,111.24-30.75,30.75-67.83,46.13-111.23,46.13s-80.72-15.38-111.48-46.13c-30.75-30.75-46.13-67.83-46.13-111.24s15.41-80.52,46.25-111.35C705.81,15.42,742.93,0,786.33,0s80.48,15.38,111.23,46.13c30.75,30.75,46.13,67.91,46.13,111.47ZM838.71,157.61c0-14.57-5.13-26.99-15.38-37.24-10.25-10.25-22.58-15.38-37-15.38s-26.79,5.17-37.12,15.5c-10.33,10.33-15.5,22.7-15.5,37.12s5.12,26.75,15.38,37c10.25,10.25,22.66,15.38,37.24,15.38s26.75-5.12,37-15.38c10.25-10.25,15.38-22.58,15.38-37Z"/>
  <path class="cls-1" d="M1266.11,301.1c0,7.66-6.21,13.87-13.87,13.87h-143.49c-43.41,0-80.48-15.38-111.24-46.13-30.75-30.75-46.13-67.91-46.13-111.48V22.29c0-7.66,6.21-13.87,13.87-13.87h77.24c7.66,0,13.87,6.21,13.87,13.87v135.08c0,14.58,5.12,26.99,15.38,37.24,10.25,10.25,22.58,15.38,37,15.38s26.75-5.12,37-15.38c10.25-10.25,15.38-22.66,15.38-37.24V22.29c0-7.66,6.21-13.87,13.87-13.87h77.24c7.66,0,13.87,6.21,13.87,13.87v278.81Z"/>
  <path class="cls-1" d="M1582.34,314.97h-77.24c-7.66,0-13.87-6.21-13.87-13.87v-135.08c0-14.57-5.13-26.99-15.38-37.24-10.25-10.25-22.58-15.38-37-15.38s-26.75,5.13-37,15.38c-10.25,10.25-15.38,22.67-15.38,37.24v135.08c0,7.66-6.21,13.87-13.87,13.87h-77.24c-7.66,0-13.87-6.21-13.87-13.87V22.29c0-7.66,6.21-13.87,13.87-13.87h143.49c43.4,0,80.48,15.38,111.23,46.13,30.75,30.75,46.13,67.91,46.13,111.47v135.08c0,7.66-6.21,13.87-13.87,13.87Z"/>
  <path class="cls-1" d="M306.56,623.02c0,7.66-6.21,13.87-13.87,13.87h-135.08c-43.41,0-80.52-15.38-111.36-46.13C15.41,560.02,0,522.94,0,479.53s15.41-80.52,46.25-111.35c30.83-30.83,67.95-46.25,111.36-46.25,33.63,0,64.1,9.61,91.41,28.83,21.22,14.94,37.54,33.61,48.95,56,4.7,9.22-2.06,20.16-12.4,20.16h-127.96c-14.42,0-26.79,5.17-37.12,15.5-10.33,10.33-15.5,22.7-15.5,37.12s5.16,26.75,15.5,37c10.33,10.25,22.7,15.38,37.12,15.38h30.09c7.66,0,13.87-6.21,13.87-13.87v-39.04c0-7.66,6.21-13.87,13.87-13.87h77.24c7.66,0,13.87,6.21,13.87,13.87v144.03Z"/>
  <path class="cls-1" d="M628.5,545.78v77.23c0,7.66-6.21,13.87-13.87,13.87h-135.09c-4.22,0-8.4-.15-12.52-.44-.27-.02-.54-.03-.82-.03h-130.39c-7.66,0-13.87-6.21-13.87-13.87v-278.32c0-7.66,6.21-13.87,13.87-13.87h77.23c7.66,0,13.87,6.21,13.87,13.87v135.32c0,14.41,5.13,26.74,15.38,36.99,8.48,8.48,18.44,13.45,29.88,14.91,2.38.31,4.83.47,7.35.47h135.09c7.66,0,13.87,6.21,13.87,13.87Z"/>
  <path class="cls-1" d="M1273.32,636.41h-104.99v-48.01c0-14.56-5.13-26.96-15.38-37.21-10.25-10.24-22.58-15.36-37-15.36-43.41,0-80.48-15.36-111.24-46.09-30.75-30.73-46.13-67.86-46.13-111.39v-48.01h104.99v48.01c0,14.56,5.12,26.97,15.38,37.21,10.25,10.24,22.58,15.36,37,15.36,43.4,0,80.48,15.36,111.23,46.09,30.75,30.73,46.13,67.85,46.13,111.38v48.01Z"/>
  <path class="cls-1" d="M1535.67,636.41h-104.99v-48.01c0-14.56-5.13-26.96-15.38-37.21-10.25-10.24-22.58-15.36-37-15.36-43.41,0-80.48-15.36-111.24-46.09-30.75-30.73-46.13-67.86-46.13-111.39v-48.01h104.99v48.01c0,14.56,5.12,26.97,15.38,37.21,10.25,10.24,22.58,15.36,37,15.36,43.4,0,80.48,15.36,111.23,46.09,30.75,30.73,46.13,67.85,46.13,111.38v48.01Z"/>
  <path class="cls-1" d="M786.34,330.33c-2.86,0-5.7.06-8.52.21-39.78,1.89-74.05,17.26-102.85,46.05-30.83,30.83-46.25,67.95-46.25,111.35s15.37,80.49,46.13,111.23c28.73,28.73,63.03,44.05,102.96,45.94,2.81.13,5.66.19,8.52.19h143.48c7.66,0,13.87-6.21,13.87-13.87v-287.23c0-7.66-6.21-13.87-13.87-13.87h-143.48ZM749.1,524.94c-10.26-10.24-15.38-22.59-15.38-37s5.17-26.79,15.5-37.12c10.34-10.33,22.7-15.5,37.13-15.5s26.74,5.12,36.99,15.38c10.24,10.24,15.38,22.65,15.38,37.23s-5.14,26.76-15.38,37c-10.24,10.24-22.57,15.37-36.99,15.37s-27-5.12-37.25-15.37Z"/>
  <path class="cls-1" d="M1768.94,314.98c2.86,0,5.7-.06,8.52-.21,39.78-1.89,74.05-17.26,102.85-46.05,30.83-30.83,46.25-67.95,46.25-111.35s-15.37-80.49-46.13-111.23c-28.73-28.73-63.03-44.05-102.96-45.94-2.81-.13-5.66-.19-8.52-.19h-143.48c-7.66,0-13.87,6.21-13.87,13.87v287.23c0,7.66,6.21,13.87,13.87,13.87h143.48ZM1806.19,120.36c10.26,10.24,15.38,22.59,15.38,37s-5.17,26.79-15.5,37.12c-10.34,10.33-22.7,15.5-37.13,15.5s-26.74-5.12-36.99-15.38c-10.24-10.24-15.38-22.65-15.38-37.23s5.14-26.76,15.38-37c10.24-10.24,22.57-15.37,36.99-15.37s27,5.12,37.25,15.37Z"/>
  <path class="cls-1" d="M786.34,330.33c-2.86,0-5.7.06-8.52.21v-.21h8.52Z"/>
  <path class="cls-1" d="M786.34,645.31h-8.52v-.19c2.81.13,5.66.19,8.52.19Z"/>
  <path class="cls-1" d="M554.43,531.43v.47h-74.9c-2.52,0-4.97-.16-7.35-.47h82.25Z"/>
</svg>