<?xml version="1.0" encoding="UTF-8"?>
<svg id="Layer_1" data-name="Layer 1" xmlns="http://www.w3.org/2000/svg" viewBox="0 0 4360.15 645.31">
  <defs>
    <style>
      .cls-1 {
        fill: #fff;
      }
    </style>
  </defs>
  <g>
    <g>
      <path class="cls-1" d="M1745.45,616.21h15.83c1,0,1.81.75,2.01,1.74,1.58,8.1,7.58,11.72,17.91,11.72,7.59,0,14.72-2.99,14.72-10.01,0-7.47-7.25-9.09-19.67-11.96-16.68-3.8-30.25-7.94-30.25-25.76s14.49-25.76,33.35-25.76,30.94,7.94,33.21,23.21c.18,1.22-.83,2.32-2.06,2.32h-15.25c-.96,0-1.72-.69-1.98-1.61-1.59-5.69-6.69-8.97-14.49-8.97s-13.45,3.45-13.45,8.85c0,6.67,7.36,8.17,20.81,11.16,15.41,3.45,29.56,8.51,29.56,26.57s-14.95,27.6-34.5,27.6c-21.96,0-36.19-9.74-37.81-26.88-.11-1.19.88-2.22,2.07-2.22Z"/>
      <path class="cls-1" d="M1902.54,557.67h66.51c1.13,0,2.05.92,2.05,2.05v12.57c0,1.13-.92,2.05-2.05,2.05h-21.43c-1.13,0-2.05.92-2.05,2.05v64.79c0,1.13-.92,2.05-2.05,2.05h-15.57c-1.13,0-2.05-.92-2.05-2.05v-64.79c0-1.13-.92-2.05-2.05-2.05h-21.31c-1.13,0-2.05-.92-2.05-2.05v-12.57c0-1.13.92-2.05,2.05-2.05Z"/>
      <path class="cls-1" d="M2061.08,613.45v-53.73c0-1.13.92-2.05,2.05-2.05h15.45c1.13,0,2.05.92,2.05,2.05v54.19c0,9.32,4.94,15.06,15.98,15.06,10.24,0,15.53-6.09,15.53-15.41v-53.84c0-1.13.92-2.05,2.05-2.05h15.57c1.13,0,2.05.92,2.05,2.05v53.73c0,19.9-12.31,31.4-35.19,31.4s-35.53-11.27-35.53-31.4Z"/>
    </g>
    <g>
      <path class="cls-1" d="M2230.02,559.43c0-1.13.92-2.05,2.05-2.05h33.6c24.04,0,39.44,17.14,39.44,43.36s-14.37,42.21-40.59,42.21h-32.45c-1.13,0-2.05-.92-2.05-2.05v-81.46ZM2263.02,626.39c14.84,0,22.08-9.32,22.08-25.65s-7.36-26.79-21.74-26.79h-11.64c-1.13,0-2.05.92-2.05,2.05v48.34c0,1.13.92,2.05,2.05,2.05h11.29Z"/>
      <path class="cls-1" d="M2410.73,557.38h15.57c1.13,0,2.05.92,2.05,2.05v81.46c0,1.13-.92,2.05-2.05,2.05h-15.57c-1.13,0-2.05-.92-2.05-2.05v-81.46c0-1.13.92-2.05,2.05-2.05Z"/>
      <path class="cls-1" d="M2532.25,600.51c0-25.64,16.33-44.62,42.32-44.62s42.2,18.98,42.2,44.62-16.33,44.51-42.2,44.51-42.32-18.98-42.32-44.51ZM2596.77,600.51c0-16.22-7.36-28.75-22.08-28.75s-22.43,12.54-22.43,28.75,7.59,28.41,22.43,28.41,22.08-12.31,22.08-28.41Z"/>
    </g>
  </g>
  <g>
    <g>
      <path class="cls-1" d="M369.29,367.77c0,9.23-7.48,16.71-16.71,16.71h-162.72c-52.29,0-97-18.52-134.14-55.57C18.57,291.87,0,247.21,0,194.92S18.57,97.92,55.71,60.78C92.85,23.64,137.57,5.07,189.85,5.07c40.52,0,77.22,11.58,110.12,34.73,25.57,18,45.22,40.48,58.96,67.46,5.66,11.1-2.48,24.29-14.94,24.29h-154.14c-17.37,0-32.27,6.22-44.71,18.67-12.45,12.44-18.67,27.35-18.67,44.71s6.22,32.23,18.67,44.57c12.45,12.35,27.35,18.52,44.71,18.52h36.25c9.23,0,16.71-7.48,16.71-16.71v-47.03c0-9.23,7.48-16.71,16.71-16.71h93.04c9.23,0,16.71,7.48,16.71,16.71v173.5Z"/>
      <path class="cls-1" d="M757.1,124.95c0,9.23-7.48,16.71-16.71,16.71h-162.72c-17.56,0-32.51,6.18-44.86,18.52-12.35,12.35-18.52,27.21-18.52,44.57v163.01c0,9.23-7.48,16.71-16.71,16.71h-93.05c-9.23,0-16.71-7.48-16.71-16.71V31.91c0-9.23,7.48-16.71,16.71-16.71h335.86c9.23,0,16.71,7.48,16.71,16.71v93.04Z"/>
      <path class="cls-1" d="M1136.81,194.92c0,52.29-18.52,96.95-55.57,134-37.04,37.04-81.71,55.57-134,55.57s-97.24-18.52-134.29-55.57c-37.04-37.04-55.57-81.71-55.57-134s18.57-97,55.71-134.14c37.14-37.14,81.85-55.71,134.14-55.71s96.95,18.52,134,55.57c37.04,37.04,55.57,81.81,55.57,134.29ZM1010.34,194.92c0-17.55-6.18-32.51-18.52-44.86-12.35-12.35-27.2-18.52-44.57-18.52s-32.27,6.22-44.71,18.67c-12.45,12.44-18.67,27.35-18.67,44.71s6.17,32.23,18.52,44.57c12.35,12.35,27.3,18.52,44.86,18.52s32.22-6.17,44.57-18.52c12.35-12.34,18.52-27.2,18.52-44.57Z"/>
      <path class="cls-1" d="M1525.2,367.77c0,9.23-7.48,16.71-16.71,16.71h-172.85c-52.29,0-96.95-18.52-134-55.57-37.04-37.04-55.57-81.8-55.57-134.29V31.91c0-9.23,7.48-16.71,16.71-16.71h93.05c9.23,0,16.71,7.48,16.71,16.71v162.72c0,17.56,6.17,32.51,18.52,44.86,12.34,12.35,27.2,18.52,44.57,18.52s32.22-6.17,44.57-18.52c12.35-12.34,18.52-27.3,18.52-44.86V31.91c0-9.23,7.48-16.71,16.71-16.71h93.05c9.23,0,16.71,7.48,16.71,16.71v335.86Z"/>
      <path class="cls-1" d="M1906.14,384.49h-93.05c-9.23,0-16.71-7.48-16.71-16.71v-162.72c0-17.55-6.18-32.51-18.52-44.86-12.35-12.34-27.2-18.52-44.57-18.52s-32.23,6.18-44.57,18.52c-12.35,12.35-18.52,27.3-18.52,44.86v162.72c0,9.23-7.48,16.71-16.71,16.71h-93.05c-9.23,0-16.71-7.48-16.71-16.71V31.91c0-9.23,7.48-16.71,16.71-16.71h172.85c52.28,0,96.95,18.52,134,55.57,37.04,37.04,55.57,81.81,55.57,134.29v162.72c0,9.23-7.48,16.71-16.71,16.71Z"/>
      <path class="cls-1" d="M2130.93,384.49c3.45,0,6.87-.08,10.26-.25,47.92-2.28,89.21-20.79,123.89-55.48,37.14-37.14,55.71-81.85,55.71-134.13s-18.51-96.96-55.57-134c-34.61-34.61-75.93-53.06-124.03-55.34-3.39-.16-6.81-.23-10.26-.23h-172.84c-9.23,0-16.71,7.48-16.71,16.71v346c0,9.23,7.48,16.71,16.71,16.71h172.84ZM2175.79,150.06c12.36,12.34,18.53,27.21,18.53,44.57s-6.23,32.27-18.67,44.71c-12.46,12.44-27.35,18.67-44.73,18.67s-32.21-6.17-44.56-18.53c-12.34-12.34-18.53-27.29-18.53-44.85s6.19-32.23,18.53-44.57c12.34-12.34,27.19-18.51,44.56-18.51s32.53,6.17,44.87,18.51Z"/>
    </g>
    <g>
      <path class="cls-1" d="M2879.52,362.7c0,9.23-7.48,16.71-16.71,16.71h-162.72c-52.29,0-97-18.52-134.14-55.57-37.14-37.04-55.71-81.71-55.71-134s18.57-97,55.71-134.14C2603.08,18.57,2647.8,0,2700.09,0,2740.6,0,2777.31,11.58,2810.21,34.73c25.57,18,45.22,40.48,58.96,67.46,5.66,11.1-2.48,24.29-14.94,24.29h-154.14c-17.37,0-32.27,6.22-44.71,18.67-12.45,12.44-18.67,27.35-18.67,44.71s6.22,32.23,18.67,44.57c12.45,12.35,27.35,18.52,44.71,18.52h36.25c9.23,0,16.71-7.48,16.71-16.71v-47.03c0-9.23,7.48-16.71,16.71-16.71h93.04c9.23,0,16.71,7.48,16.71,16.71v173.5Z"/>
      <path class="cls-1" d="M3267.34,269.66v93.04c0,9.23-7.48,16.71-16.71,16.71h-162.74c-5.09,0-10.12-.18-15.08-.53-.33-.02-.65-.04-.98-.04h-157.07c-9.23,0-16.71-7.48-16.71-16.71V26.85c0-9.23,7.48-16.71,16.71-16.71h93.04c9.23,0,16.71,7.48,16.71,16.71v163.01c0,17.36,6.18,32.21,18.53,44.56,10.21,10.21,22.21,16.2,36,17.96,2.87.38,5.82.57,8.86.57h162.74c9.23,0,16.71,7.48,16.71,16.71Z"/>
      <path class="cls-1" d="M4044.11,378.84h-126.47v-57.84c0-17.54-6.18-32.48-18.52-44.82-12.35-12.34-27.2-18.51-44.57-18.51-52.29,0-96.95-18.5-134-55.52-37.04-37.02-55.57-81.75-55.57-134.18V10.13h126.47v57.84c0,17.55,6.17,32.49,18.52,44.82,12.34,12.34,27.2,18.51,44.57,18.51,52.28,0,96.95,18.51,134,55.53,37.04,37.02,55.57,81.74,55.57,134.18v57.84Z"/>
      <path class="cls-1" d="M4360.15,378.84h-126.47v-57.84c0-17.54-6.18-32.48-18.52-44.82-12.35-12.34-27.2-18.51-44.57-18.51-52.29,0-96.95-18.5-134-55.52-37.04-37.02-55.57-81.75-55.57-134.18V10.13h126.47v57.84c0,17.55,6.17,32.49,18.52,44.82,12.34,12.34,27.2,18.51,44.57,18.51,52.28,0,96.95,18.51,134,55.53,37.04,37.02,55.57,81.74,55.57,134.18v57.84Z"/>
      <path class="cls-1" d="M3457.49,10.12c-3.45,0-6.87.08-10.26.25-47.92,2.28-89.21,20.79-123.89,55.48-37.14,37.14-55.71,81.85-55.71,134.13s18.51,96.96,55.57,134c34.61,34.61,75.93,53.06,124.03,55.34,3.39.16,6.81.23,10.26.23h172.84c9.23,0,16.71-7.48,16.71-16.71V26.83c0-9.23-7.48-16.71-16.71-16.71h-172.84ZM3412.62,244.56c-12.36-12.34-18.53-27.21-18.53-44.57s6.23-32.27,18.67-44.71c12.46-12.44,27.35-18.67,44.73-18.67s32.21,6.17,44.56,18.53c12.34,12.34,18.53,27.29,18.53,44.85s-6.19,32.23-18.53,44.57c-12.34,12.34-27.19,18.51-44.56,18.51s-32.53-6.17-44.87-18.51Z"/>
      <path class="cls-1" d="M3457.49,389.55h-10.26v-.23c3.39.16,6.81.23,10.26.23Z"/>
      <path class="cls-1" d="M3178.12,252.38v.57h-90.23c-3.03,0-5.99-.19-8.86-.57h99.08Z"/>
    </g>
  </g>
</svg>